<svg width="387" height="117" viewBox="0 0 387 117" fill="none" xmlns="http://www.w3.org/2000/svg">
<path d="M260.335 55.6801C260.435 55.3801 260.355 55.0401 260.085 54.8301C259.995 54.7601 259.895 54.7101 259.785 54.6901C256.235 53.7201 252.585 53.3901 248.975 53.6701C246.005 53.9001 243.065 54.5601 240.245 55.6301C241.055 53.7801 241.755 51.8901 242.335 49.9701C244.335 43.3701 244.995 36.3701 244.195 29.3701V29.3401C244.195 29.3401 244.175 29.2501 244.165 29.2101V29.1901C244.165 29.1801 244.155 29.1601 244.145 29.1501L244.125 29.1101C244.095 29.0501 244.045 28.9901 243.995 28.9401V28.9301L243.985 28.9201V28.9101V28.9001C243.905 28.8301 243.815 28.7801 243.715 28.7501L243.685 28.7401C243.675 28.7401 243.665 28.7401 243.645 28.7401C243.605 28.7401 243.555 28.7201 243.515 28.7201C243.515 28.7201 243.475 28.7201 243.465 28.7201H243.445H243.435C243.435 28.7201 243.395 28.7201 243.385 28.7201C243.385 28.7201 243.315 28.7301 243.275 28.7501C237.025 30.5801 231.205 33.4801 226.025 37.2701C221.605 40.5001 217.665 44.3801 214.345 48.8001C214.445 47.4201 214.495 46.0301 214.495 44.6301C214.495 36.8101 212.885 29.1701 209.865 22.1201C206.895 15.2001 202.545 8.8601 197.015 3.5301C196.985 3.4401 196.925 3.3501 196.855 3.2801C196.685 3.1001 196.445 3.02011 196.215 3.05011C196.015 3.05011 195.815 3.1301 195.655 3.2801C195.595 3.3501 195.545 3.43011 195.505 3.51011C189.965 8.84011 185.615 15.1801 182.645 22.1101C179.625 29.1501 178.015 36.8001 178.015 44.6201C178.015 46.0201 178.065 47.4101 178.165 48.7901C174.845 44.3701 170.895 40.4901 166.485 37.2601C161.305 33.4701 155.485 30.5801 149.235 28.7401C149.195 28.7301 149.165 28.7201 149.125 28.7101C149.125 28.7101 149.085 28.7101 149.075 28.7101H149.065H149.045C149.045 28.7101 149.005 28.7101 148.995 28.7101C148.995 28.7101 148.905 28.7101 148.865 28.7301C148.855 28.7301 148.835 28.7301 148.825 28.7301H148.795V28.7401C148.695 28.7701 148.605 28.8201 148.525 28.8901V28.9001V28.9101H148.515V28.9201V28.9301C148.465 28.9801 148.425 29.0401 148.385 29.1001L148.365 29.1301C148.365 29.1301 148.355 29.1701 148.345 29.1801V29.2001C148.335 29.2401 148.315 29.2901 148.315 29.3301V29.3601C147.515 36.3601 148.175 43.3601 150.175 49.9601C150.755 51.8901 151.455 53.7801 152.265 55.6201C149.445 54.5501 146.505 53.8901 143.535 53.6601C139.935 53.3801 136.275 53.7101 132.725 54.6801C132.625 54.7001 132.515 54.7501 132.425 54.8201C132.165 55.0301 132.075 55.3701 132.175 55.6701C132.175 55.6801 132.175 55.6901 132.185 55.7001C135.655 64.4901 141.205 72.0701 148.155 77.9601C154.775 83.5601 162.675 87.6201 171.285 89.6901C169.125 91.6801 167.315 94.0801 165.985 96.7801C165.985 96.7801 165.985 96.7901 165.985 96.8001C165.985 96.8201 165.975 96.8301 165.965 96.8501C165.955 96.8801 165.945 96.9101 165.935 96.9401C165.935 96.9501 165.935 96.9601 165.935 96.9801C165.935 97.0201 165.925 97.0601 165.925 97.1001C165.925 97.1001 165.925 97.1201 165.925 97.1301C165.925 97.1701 165.925 97.2101 165.925 97.2401C165.925 97.2601 165.925 97.2701 165.935 97.2901C165.935 97.3201 165.955 97.3501 165.965 97.3801C165.965 97.4001 165.975 97.4101 165.985 97.4301C165.995 97.4601 166.015 97.4901 166.025 97.5101C166.025 97.5201 166.045 97.5401 166.055 97.5501C166.075 97.5801 166.095 97.6001 166.115 97.6301C166.125 97.6401 166.135 97.6501 166.155 97.6601C166.175 97.6801 166.205 97.7001 166.225 97.7201C166.245 97.7301 166.255 97.7401 166.275 97.7501C166.295 97.7601 166.315 97.7801 166.335 97.7901C166.335 97.7901 166.345 97.7901 166.355 97.7901C166.355 97.7901 166.355 97.7901 166.365 97.7901C166.385 97.7901 166.405 97.8101 166.425 97.8101C172.315 100.09 178.585 99.9301 184.075 97.7601C185.215 97.3101 186.325 96.7701 187.385 96.1601C186.925 99.6201 187.365 103.08 188.595 106.23C189.985 109.79 192.385 112.96 195.605 115.29C195.605 115.3 195.615 115.32 195.625 115.33C195.785 115.57 196.065 115.68 196.325 115.65C196.575 115.65 196.815 115.54 196.975 115.32C196.975 115.32 196.975 115.31 196.985 115.3C200.215 112.97 202.615 109.8 204.005 106.23C205.235 103.08 205.675 99.6201 205.215 96.1601C206.275 96.7801 207.385 97.3101 208.525 97.7601C214.015 99.9201 220.285 100.09 226.175 97.8101C226.195 97.8101 226.215 97.7901 226.235 97.7901C226.235 97.7901 226.235 97.7901 226.245 97.7901C226.245 97.7901 226.255 97.7901 226.265 97.7901C226.285 97.7801 226.305 97.7601 226.325 97.7501C226.345 97.7401 226.355 97.7301 226.375 97.7201C226.405 97.7001 226.425 97.6801 226.445 97.6601C226.455 97.6501 226.465 97.6401 226.485 97.6301C226.505 97.6101 226.525 97.5801 226.545 97.5501C226.545 97.5401 226.565 97.5201 226.575 97.5101C226.595 97.4801 226.605 97.4501 226.615 97.4201C226.615 97.4001 226.625 97.3901 226.635 97.3701C226.645 97.3401 226.655 97.3101 226.665 97.2701C226.665 97.2501 226.665 97.2401 226.675 97.2201C226.675 97.1801 226.675 97.1401 226.675 97.1101C226.675 97.1101 226.675 97.0901 226.675 97.0801C226.675 97.0401 226.675 97.0001 226.665 96.9601C226.665 96.9501 226.665 96.9401 226.665 96.9201C226.665 96.8901 226.645 96.8601 226.635 96.8301C226.635 96.8101 226.625 96.7901 226.615 96.7801C226.615 96.7801 226.615 96.7701 226.615 96.7601C225.285 94.0601 223.475 91.6601 221.315 89.6701C229.915 87.6001 237.815 83.5401 244.445 77.9401C251.395 72.0601 256.945 64.4701 260.415 55.6801C260.415 55.6801 260.415 55.6601 260.415 55.6501L260.335 55.6801ZM249.105 55.1901C252.165 54.9501 255.265 55.1701 258.285 55.8801C250.845 65.0501 241.515 72.2901 231.095 77.2201C224.065 80.5401 216.535 82.8201 208.755 83.9201C211.315 83.1201 213.805 82.1101 216.205 80.9201C222.375 77.8501 227.925 73.5301 232.475 68.1501C235.205 64.9201 237.495 61.4001 239.315 57.6701C242.435 56.2901 245.745 55.4601 249.105 55.2001V55.1901ZM198.905 98.8401C198.195 100.57 197.295 102.21 196.215 103.75C195.135 102.21 194.225 100.56 193.525 98.8301C192.725 96.8801 192.185 94.8301 191.895 92.7201C193.565 91.1201 195.025 89.2501 196.215 87.1501C197.395 89.2501 198.865 91.1201 200.535 92.7301C200.255 94.8401 199.705 96.9001 198.905 98.8401ZM196.205 30.1801C202.295 38.1301 205.345 47.6501 205.345 57.1601C205.345 66.6701 202.305 76.1801 196.215 84.1301C190.125 76.1801 187.075 66.6601 187.075 57.1501C187.075 47.6401 190.115 38.1301 196.205 30.1801ZM240.885 49.5301C238.945 55.9401 235.715 61.9501 231.305 67.1601C226.895 72.3801 221.515 76.5701 215.515 79.5501C211.085 81.7501 206.335 83.2901 201.395 84.1001C211.675 79.4401 220.645 72.5901 227.755 64.1701C234.865 55.7501 240.125 45.7701 243.005 34.8501C243.035 39.8501 242.315 44.7901 240.875 49.5301H240.885ZM226.875 38.4701C231.575 35.0301 236.835 32.3401 242.465 30.5501C239.955 42.7701 234.425 53.9401 226.615 63.1801C219.295 71.8401 209.975 78.8201 199.255 83.3801C203.715 78.5701 207.275 73.0601 209.825 67.1101C211.915 62.2501 213.325 57.1101 213.995 51.8201C217.525 46.6301 221.895 42.1201 226.885 38.4701H226.875ZM184.005 22.6901C186.845 16.0801 190.965 10.0201 196.215 4.90011C201.465 10.0301 205.585 16.0901 208.425 22.7001C211.365 29.5501 212.925 37.0001 212.925 44.6101C212.925 52.2201 211.365 59.6701 208.425 66.5201C206.745 70.4201 204.625 74.1301 202.085 77.5701C205.275 71.1501 206.875 64.1501 206.875 57.1501C206.875 47.1001 203.585 37.0501 197.005 28.7201C196.965 28.5601 196.885 28.4001 196.745 28.2901C196.575 28.1501 196.365 28.1001 196.165 28.1301C196.005 28.1301 195.835 28.1801 195.695 28.2901C195.555 28.4001 195.475 28.5501 195.435 28.7101C188.855 37.0501 185.565 47.1001 185.565 57.1501C185.565 64.1501 187.165 71.1501 190.355 77.5701C187.815 74.1301 185.695 70.4201 184.015 66.5201C181.075 59.6701 179.515 52.2201 179.515 44.6101C179.515 37.0001 181.075 29.5501 184.015 22.7001L184.005 22.6901ZM165.545 38.4701C170.535 42.1201 174.905 46.6301 178.435 51.8201C179.105 57.1101 180.515 62.2601 182.605 67.1101C185.155 73.0501 188.715 78.5601 193.175 83.3801C182.455 78.8201 173.135 71.8501 165.815 63.1801C158.005 53.9401 152.475 42.7701 149.965 30.5501C155.595 32.3401 160.845 35.0301 165.555 38.4701H165.545ZM149.405 34.8401C152.275 45.7601 157.535 55.7401 164.655 64.1601C171.765 72.5801 180.735 79.4301 191.015 84.0901C186.085 83.2901 181.325 81.7501 176.895 79.5401C170.905 76.5601 165.515 72.3701 161.105 67.1501C156.695 61.9401 153.465 55.9201 151.525 49.5201C150.095 44.7901 149.365 39.8401 149.395 34.8401H149.405ZM143.315 55.1801C146.675 55.4501 149.985 56.2701 153.105 57.6501C154.935 61.3801 157.225 64.9001 159.945 68.1301C164.485 73.5101 170.045 77.8301 176.215 80.9001C178.615 82.0901 181.105 83.1001 183.665 83.9001C175.885 82.8001 168.355 80.5201 161.325 77.2001C150.905 72.2801 141.585 65.0401 134.135 55.8601C137.155 55.1601 140.255 54.9301 143.315 55.1701V55.1801ZM149.045 76.8001C143.625 72.2201 139.095 66.5701 135.765 60.1101C142.835 67.9201 151.325 74.1701 160.675 78.5901C166.615 81.4001 172.895 83.4601 179.385 84.7301C176.985 85.5901 174.755 86.8201 172.765 88.3601C172.725 88.3901 172.675 88.4301 172.635 88.4601C163.845 86.5301 155.765 82.4801 149.045 76.8001ZM173.695 89.5601C176.345 87.5001 179.465 86.0401 182.825 85.3201C186.605 85.8901 190.445 86.1801 194.315 86.2001C190.765 89.3801 186.695 91.8701 182.325 93.5901C177.745 95.4001 172.825 96.3501 167.825 96.3701C169.325 93.7001 171.325 91.3901 173.695 89.5601ZM183.435 96.3701C179.755 97.8201 175.695 98.3201 171.655 97.7001C175.525 97.3301 179.305 96.4201 182.885 95.0101C186.465 93.6001 189.855 91.6901 192.935 89.3201C192.255 90.1901 191.515 91.0001 190.725 91.7401C190.535 91.8101 190.385 91.9501 190.305 92.1301C188.275 93.9601 185.945 95.3901 183.435 96.3801V96.3701ZM202.505 105.71C201.245 108.93 199.105 111.8 196.215 113.94C193.325 111.8 191.175 108.92 189.915 105.7C188.625 102.39 188.265 98.7101 189.015 95.0801C189.505 94.7401 189.985 94.3701 190.445 93.9901C190.775 95.8501 191.295 97.6601 192.005 99.4101C192.905 101.61 194.095 103.68 195.545 105.57C195.545 105.57 195.545 105.57 195.555 105.58C195.575 105.6 195.595 105.62 195.605 105.64C195.625 105.66 195.645 105.68 195.665 105.69C195.665 105.69 195.665 105.69 195.675 105.7C195.685 105.71 195.705 105.72 195.715 105.73C195.735 105.75 195.765 105.76 195.785 105.77C195.805 105.78 195.825 105.79 195.855 105.8C195.875 105.8 195.905 105.82 195.925 105.83C195.945 105.83 195.975 105.84 195.995 105.85C196.015 105.85 196.045 105.85 196.065 105.86C196.085 105.86 196.115 105.86 196.135 105.86C196.155 105.86 196.185 105.86 196.205 105.86C196.215 105.86 196.225 105.86 196.245 105.86C196.265 105.86 196.285 105.86 196.305 105.86C196.325 105.86 196.355 105.86 196.375 105.85C196.395 105.85 196.425 105.85 196.445 105.83C196.465 105.83 196.495 105.81 196.515 105.8C196.535 105.8 196.555 105.78 196.585 105.77C196.605 105.76 196.635 105.74 196.655 105.73C196.665 105.73 196.685 105.71 196.695 105.7C196.695 105.7 196.695 105.7 196.705 105.69C196.725 105.67 196.745 105.65 196.765 105.64C196.785 105.62 196.805 105.6 196.815 105.58C196.815 105.58 196.815 105.58 196.825 105.57C198.285 103.68 199.475 101.61 200.365 99.4101C201.075 97.6701 201.595 95.8601 201.925 94.0101C202.395 94.3901 202.865 94.7501 203.365 95.1001C204.115 98.7301 203.755 102.41 202.465 105.72L202.505 105.71ZM208.985 96.3801C206.485 95.3901 204.155 93.9601 202.125 92.1401C202.035 91.9401 201.875 91.7901 201.665 91.7201C200.885 90.9801 200.155 90.1801 199.475 89.3201C202.555 91.6901 205.945 93.6001 209.525 95.0101C213.105 96.4201 216.885 97.3301 220.755 97.7001C216.725 98.3201 212.665 97.8301 208.975 96.3701L208.985 96.3801ZM224.595 96.3801C219.585 96.3601 214.675 95.4001 210.095 93.6001C205.725 91.8801 201.665 89.3901 198.105 86.2101C201.975 86.2001 205.815 85.9001 209.595 85.3301C212.965 86.0501 216.075 87.5101 218.725 89.5701C221.095 91.4101 223.095 93.7101 224.595 96.3801ZM243.375 76.8001C236.655 82.4901 228.575 86.5301 219.785 88.4601C219.745 88.4301 219.695 88.3901 219.655 88.3601C217.665 86.8201 215.435 85.5901 213.035 84.7301C219.525 83.4601 225.815 81.3901 231.745 78.5901C241.095 74.1701 249.575 67.9201 256.655 60.1101C253.325 66.5701 248.785 72.2201 243.375 76.8001Z" fill="#738C6D" stroke="#738C6D" stroke-width="0.5" stroke-miterlimit="10"/>
<path d="M371.515 12.41C371.785 7.21 373.775 3.05 377.695 0C377.335 8.26 379.465 14.25 382.815 21.06C386.605 28.74 387.575 35.97 386.545 42.11C385.445 48.72 381.925 54.12 376.545 57.96C371.675 61.44 366.475 62.73 360.785 62.25C355.185 61.78 349.135 59.58 342.475 56.06C339.525 54.5 336.545 53.39 333.235 52.86C329.915 52.33 326.255 52.38 321.945 53.17C321.415 53.27 320.905 52.91 320.805 52.38C320.705 51.85 321.065 51.34 321.595 51.24C326.145 50.41 330.025 50.36 333.565 50.92C337.105 51.48 340.275 52.67 343.405 54.33C349.845 57.74 355.645 59.86 360.955 60.3C366.175 60.74 370.945 59.55 375.425 56.36C380.375 52.82 383.625 47.86 384.635 41.79C385.595 36.03 383.995 28.81 378.635 22.86C373.265 16.93 368.395 16.98 366.815 17.46C363.865 18.35 362.165 20.27 362.305 22.67C364.415 21.31 367.455 21.8 368.895 24.16C371.065 27.69 369.315 31.79 365.195 32.9C360.875 34.07 356.595 31.8 355.345 25.63C354.495 21.44 356.505 16.6 360.265 13.98C363.415 11.78 367.285 10.69 371.525 12.41H371.515Z" fill="#738C6D"/>
<path fill-rule="evenodd" clip-rule="evenodd" d="M333.995 47.5798C341.705 48.7298 344.805 51.1898 350.335 53.3998C355.585 55.4998 363.355 56.4398 368.635 54.5898C375.105 52.3298 379.775 45.5898 378.695 37.7798C378.435 35.9098 377.125 34.8498 375.655 35.1198C374.005 35.4098 373.275 36.9898 373.405 38.4498C373.725 42.0598 372.975 46.7598 369.945 48.8898C369.835 46.9198 368.635 45.5798 367.135 45.2098C364.405 44.5298 357.865 48.5298 352.485 49.1498C352.405 47.0998 351.035 45.3298 348.945 45.1798C344.035 44.8298 340.515 45.9998 334.175 46.2598C333.285 46.2998 333.305 47.4898 333.985 47.5998L333.995 47.5798Z" fill="#738C6D"/>
<path d="M334.925 64.0698C334.355 63.6598 334.235 62.8698 334.655 62.3098C335.065 61.7398 335.855 61.6198 336.425 62.0298C344.575 67.9398 349.855 75.3798 352.045 83.0498C354.295 90.9198 353.285 99.0198 348.785 105.94C344.115 113.11 334.205 118.16 325.615 115.8C321.175 114.58 317.005 111.32 315.215 106.9C314.075 104.1 313.915 100.68 315.815 97.6598C318.035 94.1298 322.045 92.2398 326.205 93.3398C327.385 93.6498 328.525 94.1798 329.565 94.9198C331.985 96.6498 333.765 99.5598 334.185 102.89C334.375 104.45 333.445 106.03 331.775 106.52C330.255 106.96 328.945 105.85 328.385 104.54C327.355 102.11 325.895 99.3698 323.375 99.3298C320.395 99.2898 318.675 101.87 319.185 104.98C319.685 108.04 322.355 111.65 326.515 112.98C334.035 115.39 342.545 110.88 346.665 104.56C350.755 98.2798 351.665 90.9098 349.615 83.7398C347.575 76.5998 342.615 69.6298 334.925 64.0698Z" fill="#738C6D"/>
<path d="M250.635 103.44C249.975 103.88 249.065 103.71 248.625 103.04C248.185 102.38 248.355 101.48 249.025 101.04C251.555 99.3401 253.795 97.1301 255.785 94.6701C257.815 92.1801 259.575 89.4301 261.105 86.6701C263.545 82.3301 266.655 78.2601 270.225 74.7201C273.745 71.2401 277.745 68.2501 282.005 65.9901C287.275 63.2001 293.075 61.4401 299.025 60.6801C305.125 59.8901 311.385 60.1601 317.365 61.4301C324.375 62.9201 331.425 66.3501 336.975 71.1701C342.095 75.6001 345.965 81.2301 347.425 87.6201C347.605 88.4001 347.115 89.1701 346.335 89.3501C345.555 89.5301 344.845 89.1301 344.385 88.4701C339.495 81.4201 335.835 75.5301 328.585 70.2901C329.855 72.9401 330.455 76.6101 328.435 79.0001C327.385 80.2601 324.305 81.7801 324.755 84.3501C325.205 86.9101 328.485 88.3901 327.845 89.4501C327.225 90.4701 322.995 88.2601 320.135 83.1901C318.685 80.6101 319.635 75.5401 316.005 72.4901C313.955 76.7301 315.825 79.8801 315.085 80.9201C313.835 82.6701 310.115 79.1101 305.845 73.2501C302.175 68.2001 296.545 65.4701 287.185 67.9701C294.825 69.1601 298.945 75.4001 297.495 76.7601C296.465 77.7101 290.595 75.1001 283.175 76.5201C275.695 77.9501 267.045 82.0701 263.625 88.0801C261.985 90.9501 260.145 93.8601 258.025 96.4801C255.875 99.1401 253.425 101.54 250.635 103.42V103.44Z" fill="#738C6D"/>
<path d="M216.195 115.2C215.395 115.17 214.765 114.51 214.785 113.71C214.815 112.91 215.475 112.29 216.275 112.31C221.355 112.46 227.595 109.44 233.775 104.73C240.845 99.3401 247.755 91.7701 252.755 84.2001C258.225 75.9001 264.835 68.3201 272.965 62.4301C281.115 56.5001 290.805 52.2701 302.415 50.6801C311.395 49.4501 320.535 49.0301 329.245 50.8101C338.045 52.6201 346.375 56.6701 353.625 64.4001C358.875 70.0101 362.175 76.7201 363.545 83.4701C364.995 90.5701 364.285 97.7401 361.565 103.73C360.485 106.08 358.145 107.9 356.325 107.45C354.505 107 352.925 104.94 353.355 102.36C355.215 91.1301 357.445 78.8301 348.685 67.6601C339.265 55.6601 318.605 50.6801 302.795 53.5401C291.785 55.5401 282.455 59.1001 274.665 64.7601C266.845 70.4401 260.465 77.7501 255.175 85.7901C250.005 93.6201 242.865 101.44 235.535 107.02C228.855 112.11 221.975 115.37 216.195 115.2Z" fill="#738C6D"/>
<path fill-rule="evenodd" clip-rule="evenodd" d="M295.865 91.5701C294.835 94.4901 291.105 96.73 287.515 97.77C282.655 99.18 276.595 96.32 271.935 98.39C268.605 99.87 267.885 104.4 263.115 107.11C258.165 109.92 250.085 109.6 245.045 109.38C243.505 109.31 243.025 108.68 243.005 108.24C242.975 107.74 243.515 107.21 244.985 107.03C248.585 106.6 252.945 107.16 259.315 103.24C265.445 99.4701 269.125 91.1001 277.245 88.7001C283.265 86.9201 288.815 93.4101 295.875 91.5701H295.865Z" fill="#738C6D"/>
<path d="M15.4148 12.41C15.1448 7.21 13.1548 3.05 9.23485 0C9.59485 8.26 7.46484 14.25 4.11484 21.06C0.324838 28.74 -0.645158 35.97 0.384842 42.11C1.48484 48.72 5.00484 54.12 10.3848 57.96C15.2548 61.44 20.4549 62.73 26.1449 62.25C31.7449 61.78 37.7948 59.58 44.4548 56.06C47.3948 54.5 50.3848 53.39 53.6948 52.86C57.0148 52.33 60.6748 52.38 64.9848 53.17C65.5148 53.27 66.0248 52.91 66.1248 52.38C66.2248 51.85 65.8649 51.34 65.3349 51.24C60.7849 50.41 56.9049 50.36 53.3649 50.92C49.8249 51.49 46.6549 52.67 43.5249 54.33C37.0849 57.74 31.2848 59.86 25.9748 60.3C20.7548 60.74 15.9848 59.55 11.5048 56.36C6.55484 52.82 3.30485 47.86 2.29485 41.79C1.33485 36.03 2.93485 28.81 8.29485 22.86C13.6648 16.93 18.5348 16.98 20.1148 17.46C23.0648 18.35 24.7648 20.27 24.6248 22.67C22.5148 21.31 19.4749 21.8 18.0349 24.16C15.8649 27.69 17.6148 31.79 21.7348 32.9C26.0548 34.07 30.3349 31.8 31.5849 25.63C32.4349 21.44 30.4248 16.6 26.6648 13.98C23.5148 11.78 19.6448 10.69 15.4048 12.41H15.4148Z" fill="#738C6D"/>
<path fill-rule="evenodd" clip-rule="evenodd" d="M52.9347 47.5798C45.2247 48.7298 42.1247 51.1898 36.5947 53.3998C31.3447 55.4998 23.5747 56.4398 18.2947 54.5898C11.8247 52.3298 7.15468 45.5898 8.23468 37.7798C8.49468 35.9098 9.80468 34.8498 11.2747 35.1198C12.9247 35.4098 13.6547 36.9898 13.5247 38.4498C13.2047 42.0598 13.9547 46.7598 16.9847 48.8898C17.1047 46.9198 18.2947 45.5798 19.7947 45.2098C22.5247 44.5298 29.0647 48.5298 34.4447 49.1498C34.5247 47.0998 35.8947 45.3298 37.9847 45.1798C42.8947 44.8298 46.4147 45.9998 52.7547 46.2598C53.6447 46.2998 53.6247 47.4898 52.9447 47.5998L52.9347 47.5798Z" fill="#738C6D"/>
<path d="M57.1152 64.0698C57.6852 63.6598 57.8052 62.8698 57.3852 62.3098C56.9752 61.7398 56.1852 61.6198 55.6152 62.0298C47.4652 67.9398 42.1853 75.3798 39.9953 83.0498C37.7453 90.9198 38.7552 99.0198 43.2552 105.94C47.9252 113.11 57.8352 118.16 66.4252 115.8C70.8652 114.58 75.0352 111.32 76.8252 106.9C77.9652 104.1 78.1252 100.68 76.2252 97.6598C74.0052 94.1298 69.9952 92.2398 65.8352 93.3398C64.6552 93.6498 63.5152 94.1798 62.4752 94.9198C60.0552 96.6498 58.2752 99.5598 57.8552 102.89C57.6652 104.45 58.5952 106.03 60.2652 106.52C61.7852 106.96 63.0952 105.85 63.6552 104.54C64.6852 102.11 66.1452 99.3698 68.6652 99.3298C71.6452 99.2898 73.3652 101.87 72.8552 104.98C72.3552 108.04 69.6852 111.65 65.5252 112.98C58.0052 115.39 49.4952 110.88 45.3752 104.56C41.2852 98.2798 40.3752 90.9098 42.4252 83.7398C44.4652 76.5998 49.4252 69.6298 57.1152 64.0698Z" fill="#738C6D"/>
<path d="M141.415 103.44C142.075 103.88 142.985 103.71 143.425 103.04C143.865 102.38 143.695 101.48 143.025 101.04C140.495 99.3401 138.255 97.1301 136.265 94.6701C134.235 92.1801 132.475 89.4301 130.945 86.6701C128.505 82.3301 125.395 78.2601 121.825 74.7201C118.305 71.2401 114.305 68.2501 110.045 65.9901C104.775 63.2001 98.9752 61.4401 93.0252 60.6801C86.9252 59.8901 80.6651 60.1601 74.6851 61.4301C67.6751 62.9201 60.6251 66.3501 55.0751 71.1701C49.9551 75.6001 46.0851 81.2301 44.6251 87.6201C44.4451 88.4001 44.9352 89.1701 45.7152 89.3501C46.4952 89.5301 47.2051 89.1301 47.6651 88.4701C52.5551 81.4201 56.2152 75.5301 63.4652 70.2901C62.1952 72.9401 61.5952 76.6101 63.6152 79.0001C64.6652 80.2601 67.7451 81.7801 67.2951 84.3501C66.8451 86.9101 63.5652 88.3901 64.2052 89.4501C64.8252 90.4701 69.0551 88.2601 71.9151 83.1901C73.3651 80.6101 72.4151 75.5401 76.0451 72.4901C78.0951 76.7301 76.2252 79.8801 76.9652 80.9201C78.2152 82.6701 81.9352 79.1101 86.2052 73.2501C89.8752 68.2001 95.5052 65.4701 104.865 67.9701C97.2252 69.1601 93.1052 75.4001 94.5552 76.7601C95.5852 77.7101 101.455 75.1001 108.875 76.5201C116.355 77.9501 125.005 82.0701 128.425 88.0801C130.075 90.9501 131.905 93.8601 134.025 96.4801C136.175 99.1401 138.625 101.54 141.415 103.42V103.44Z" fill="#738C6D"/>
<path d="M175.854 115.2C176.654 115.17 177.284 114.51 177.264 113.71C177.234 112.91 176.574 112.29 175.774 112.31C170.694 112.46 164.454 109.44 158.274 104.73C151.204 99.3401 144.294 91.7701 139.294 84.2001C133.824 75.9001 127.214 68.3201 119.084 62.4301C110.934 56.5001 101.244 52.2701 89.6344 50.6801C80.6544 49.4501 71.5144 49.0301 62.8044 50.8101C54.0044 52.6201 45.6744 56.6701 38.4244 64.4001C33.1744 70.0101 29.8744 76.7201 28.5044 83.4701C27.0544 90.5701 27.7644 97.7401 30.4844 103.73C31.5644 106.08 33.9044 107.9 35.7244 107.45C37.5444 107 39.1244 104.94 38.6944 102.36C36.8344 91.1301 34.5944 78.8301 43.3644 67.6601C52.7844 55.6601 73.4444 50.6801 89.2544 53.5401C100.264 55.5401 109.594 59.1001 117.384 64.7601C125.204 70.4401 131.584 77.7501 136.874 85.7901C142.034 93.6201 149.184 101.44 156.514 107.02C163.194 112.11 170.074 115.37 175.854 115.2Z" fill="#738C6D"/>
<path fill-rule="evenodd" clip-rule="evenodd" d="M96.175 91.5701C97.205 94.4901 100.935 96.73 104.525 97.77C109.385 99.18 115.445 96.32 120.105 98.39C123.435 99.87 124.155 104.4 128.925 107.11C133.875 109.92 141.955 109.6 146.995 109.38C148.535 109.31 149.015 108.68 149.035 108.24C149.065 107.74 148.525 107.21 147.055 107.03C143.455 106.6 139.095 107.16 132.725 103.24C126.595 99.4701 122.915 91.1001 114.795 88.7001C108.775 86.9201 103.225 93.4101 96.165 91.5701H96.175Z" fill="#738C6D"/>
</svg>
