<svg width="423" height="287" viewBox="0 0 423 287" fill="none" xmlns="http://www.w3.org/2000/svg">
<path d="M15.2 159.62H8.07001V184.94C8.07001 185.88 7.88 186.72 8.91 187.38H0C1.03 186.72 0.940002 185.88 0.940002 184.94V133.18C0.940002 130.84 0.279999 130.18 0.279999 130.18L18.75 130.27C25.59 130.27 35.81 133.18 35.81 145.09C35.81 155.22 26.53 159.62 15.18 159.62H15.2ZM16.42 155.69C19.05 155.69 30.11 155.03 30.11 144.91C30.11 135.54 21.48 134.13 18.76 134.13H8.07001V155.7H16.41L16.42 155.69Z" fill="#738C6D"/>
<path d="M83.09 187.38L74.93 165.44C68.65 165.91 56.83 169.38 52.05 176.22L47.92 187.38H40.04C41.26 186.63 41.35 185.88 41.82 184.94L61.98 130.37H69.01L89.26 184.94C89.63 185.88 90.2 186.63 91.32 187.38H83.07H83.09ZM73.71 162.25L65.08 139.84L55.5201 166.75C60.7701 164.31 68.93 162.62 73.71 162.25Z" fill="#738C6D"/>
<path d="M140.38 130.37V135.25C139.82 134.69 138.88 134.78 137.85 134.78L119.47 134.31V184.85C119.47 186.44 120.22 187.38 120.22 187.38H111.59C112.34 187.01 112.43 185.97 112.43 184.85V134.31L94.3298 134.78C93.2998 134.78 92.3598 134.69 91.7998 135.25V130.37H140.37H140.38Z" fill="#738C6D"/>
<path d="M202.07 130.37V135.25C201.51 134.69 200.57 134.78 199.54 134.78L181.16 134.31V184.85C181.16 186.44 181.91 187.38 181.91 187.38H173.28C174.03 187.01 174.12 185.97 174.12 184.85V134.31L156.02 134.78C154.99 134.78 154.05 134.69 153.49 135.25V130.37H202.06H202.07Z" fill="#738C6D"/>
<path d="M257.9 187.38H250.02V159.91H221.05V187.38H213.55C214.11 186.82 214.11 185.88 214.11 184.85V133.09C214.11 132.15 214.11 131.12 213.55 130.65H221.05V155.87H250.02V130.65H257.9C257.15 131.31 257.06 132.15 257.06 133.09V184.85C257.06 185.88 257.06 186.54 257.9 187.38Z" fill="#738C6D"/>
<path d="M287.53 184.94C287.53 185.88 287.44 186.72 288.19 187.38H279.94C280.5 186.82 280.5 185.88 280.5 184.94V133.09C280.5 132.15 280.5 131.21 279.94 130.65H288.19C287.72 131.12 287.53 132.15 287.53 133.09V184.94Z" fill="#738C6D"/>
<path d="M344.45 184.94L325.42 159.53H318.29V184.85C318.29 185.79 318.1 186.63 319.13 187.29H310.22C311.25 186.63 311.16 185.79 311.16 184.85V133.09C311.16 130.75 310.5 130.09 310.5 130.09L328.97 130.18C335.81 130.18 346.32 132.62 346.32 144.53C346.32 156.44 332.63 158.78 332.63 158.78L355.23 187.38H344.45C345.39 186.72 345.2 186.16 344.45 184.94ZM326.35 155.59C328.98 155.59 339.48 154.75 339.48 144.53C339.48 135.25 331.42 134.03 328.7 134.03H318.29V155.6H326.35V155.59Z" fill="#738C6D"/>
<path d="M414.22 187.38L406.06 165.44C399.78 165.91 387.96 169.38 383.18 176.22L379.05 187.38H371.17C372.39 186.63 372.48 185.88 372.95 184.94L393.11 130.37H400.14L420.39 184.94C420.76 185.88 421.33 186.63 422.45 187.38H414.2H414.22ZM404.84 162.25L396.21 139.84L386.65 166.75C391.9 164.31 400.06 162.62 404.84 162.25Z" fill="#738C6D"/>
<path d="M114.1 208.7V211.69C113.75 211.35 113.18 211.4 112.55 211.4L101.3 211.11V242.06C101.3 243.04 101.76 243.61 101.76 243.61H96.4801C96.9401 243.38 97.0001 242.75 97.0001 242.06V211.11L85.9201 211.4C85.2901 211.4 84.7201 211.34 84.3701 211.69V208.7H114.11H114.1Z" fill="#738C6D"/>
<path d="M149.59 243.61H144.77V226.79H127.03V243.61H122.44C122.79 243.26 122.79 242.69 122.79 242.06V210.37C122.79 209.8 122.79 209.17 122.44 208.88H127.03V224.32H144.77V208.88H149.59C149.13 209.28 149.07 209.8 149.07 210.37V242.06C149.07 242.69 149.07 243.09 149.59 243.61Z" fill="#738C6D"/>
<path d="M183.41 243.61L178.42 230.17C174.57 230.46 167.34 232.58 164.41 236.77L161.89 243.6H157.07C157.82 243.14 157.87 242.68 158.16 242.11L170.5 208.69H174.81L187.21 242.11C187.44 242.68 187.78 243.14 188.47 243.6H183.42L183.41 243.61ZM177.67 228.22L172.39 214.5L166.53 230.98C169.75 229.49 174.74 228.46 177.67 228.22Z" fill="#738C6D"/>
<path d="M200.86 242.11C200.86 242.68 200.8 243.2 201.26 243.6H196.21C196.56 243.25 196.56 242.68 196.56 242.11V210.36C196.56 209.79 196.56 209.21 196.21 208.87H201.26C200.97 209.16 200.86 209.79 200.86 210.36V242.11Z" fill="#738C6D"/>
<path d="M259.03 234.59C259.03 240.05 253.86 244.06 247.15 244.06C240.44 244.06 235.15 239.81 235.15 239.81L237.27 235.85C237.27 235.85 240.94 241.93 247.15 241.93C253.01 241.93 254.33 238.08 254.33 235.44C254.33 227 236.7 228.72 236.7 216.32C236.7 210.41 241.92 207.71 247.15 207.71C253.69 207.71 257.14 212.02 257.14 212.02L255.07 215.92C255.07 215.92 252.6 209.83 247.15 209.83C242.73 209.83 241.41 213.27 241.41 214.82C241.41 226.65 259.04 221.83 259.04 234.57L259.03 234.59Z" fill="#738C6D"/>
<path d="M278.95 226.61H274.59V242.11C274.59 242.68 274.47 243.2 275.11 243.6H269.65C270.28 243.2 270.23 242.68 270.23 242.11V210.42C270.23 208.98 269.83 208.58 269.83 208.58L281.14 208.64C285.33 208.64 291.59 210.42 291.59 217.71C291.59 223.91 285.9 226.61 278.96 226.61H278.95ZM279.7 224.2C281.31 224.2 288.08 223.8 288.08 217.6C288.08 211.86 282.8 211 281.13 211H274.59V224.2H279.7Z" fill="#738C6D"/>
<path d="M325.12 243.61L320.13 230.17C316.28 230.46 309.05 232.58 306.12 236.77L303.6 243.6H298.78C299.53 243.14 299.58 242.68 299.87 242.11L312.21 208.69H316.52L328.92 242.11C329.15 242.68 329.49 243.14 330.18 243.6H325.13L325.12 243.61ZM319.37 228.22L314.09 214.5L308.23 230.98C311.45 229.49 316.44 228.46 319.37 228.22Z" fill="#738C6D"/>
<path fill-rule="evenodd" clip-rule="evenodd" d="M216.42 256.41C212.85 256.41 209.95 263.25 209.95 271.68C209.95 280.11 212.85 286.95 216.42 286.95C219.99 286.95 222.89 280.11 222.89 271.68C222.89 263.25 219.99 256.41 216.42 256.41Z" fill="#738C6D"/>
<path fill-rule="evenodd" clip-rule="evenodd" d="M203.38 267.19C203.31 270.56 204.23 275.88 202.22 277.93C201.22 277.27 200.4 276.36 199.11 276.51C199.38 279.07 199.62 284.84 196.13 285.05C196.38 283.45 195.93 281.77 195.29 281.62C194.64 281.7 191.67 286.96 185.91 284.47C193.14 281.28 196.19 270.77 203.38 267.19Z" fill="#738C6D"/>
<path fill-rule="evenodd" clip-rule="evenodd" d="M134.63 267.99C164.43 261.58 167.34 277.65 179.28 278.15C189.36 278.57 189.68 263.94 204.52 263.46C192.73 266.82 190.78 281.1 179.67 281.64C168.14 282.2 163.5 264.93 134.63 267.99Z" fill="#738C6D"/>
<path fill-rule="evenodd" clip-rule="evenodd" d="M197.85 261.85C188.28 266.45 186.11 272.33 182.13 274.53C175.95 277.95 170.37 273.09 170.87 268.03C171.31 263.56 175.39 262.53 178.28 263.17C179.74 263.49 180.76 264.65 180.48 266.28C180.24 267.69 178.75 268.71 177.41 268.5C175.72 268.24 174.62 266.16 176.31 264.7C174.36 264.66 172.94 265.83 172.92 267.52C172.88 270.04 175.2 273.2 179.55 272.46C185.3 271.49 184.87 263.44 197.86 261.85H197.85Z" fill="#738C6D"/>
<path fill-rule="evenodd" clip-rule="evenodd" d="M229.46 267.19C229.53 270.56 228.61 275.88 230.62 277.93C231.62 277.27 232.44 276.36 233.73 276.51C233.46 279.07 233.22 284.84 236.71 285.05C236.46 283.45 236.91 281.77 237.55 281.62C238.2 281.7 241.17 286.96 246.93 284.47C239.7 281.28 236.65 270.77 229.46 267.19Z" fill="#738C6D"/>
<path fill-rule="evenodd" clip-rule="evenodd" d="M298.21 267.99C268.41 261.58 265.5 277.65 253.56 278.15C243.48 278.57 243.16 263.94 228.32 263.46C240.11 266.82 242.06 281.1 253.17 281.64C264.7 282.2 269.34 264.93 298.21 267.99Z" fill="#738C6D"/>
<path fill-rule="evenodd" clip-rule="evenodd" d="M234.99 261.85C244.56 266.45 246.729 272.33 250.709 274.53C256.889 277.95 262.469 273.09 261.969 268.03C261.529 263.56 257.449 262.53 254.559 263.17C253.099 263.49 252.079 264.65 252.359 266.28C252.599 267.69 254.089 268.71 255.429 268.5C257.119 268.24 258.219 266.16 256.529 264.7C258.479 264.66 259.899 265.83 259.919 267.52C259.959 270.04 257.639 273.2 253.289 272.46C247.539 271.49 247.969 263.44 234.979 261.85H234.99Z" fill="#738C6D"/>
<path d="M278.11 55.6801C278.21 55.3801 278.13 55.0401 277.86 54.8301C277.77 54.7601 277.67 54.7101 277.56 54.6901C274.01 53.7201 270.36 53.3901 266.75 53.6701C263.78 53.9001 260.84 54.5601 258.02 55.6301C258.83 53.7801 259.53 51.8901 260.11 49.9701C262.11 43.3701 262.77 36.3701 261.97 29.3701V29.3401C261.97 29.3401 261.95 29.2501 261.94 29.2101V29.1901C261.94 29.1801 261.93 29.1601 261.92 29.1501L261.9 29.1101C261.87 29.0501 261.82 28.9901 261.77 28.9401V28.9301L261.76 28.9201V28.9101V28.9001C261.68 28.8301 261.59 28.7801 261.49 28.7501L261.46 28.7401C261.45 28.7401 261.44 28.7401 261.42 28.7401C261.38 28.7401 261.33 28.7201 261.29 28.7201C261.29 28.7201 261.25 28.7201 261.24 28.7201H261.22H261.21C261.21 28.7201 261.17 28.7201 261.16 28.7201C261.16 28.7201 261.09 28.7301 261.05 28.7501C254.8 30.5801 248.98 33.4801 243.8 37.2701C239.38 40.5001 235.44 44.3801 232.12 48.8001C232.22 47.4201 232.27 46.0301 232.27 44.6301C232.27 36.8101 230.66 29.1701 227.64 22.1201C224.67 15.2001 220.32 8.8601 214.79 3.5301C214.76 3.4401 214.7 3.3501 214.63 3.2801C214.46 3.1001 214.22 3.02011 213.99 3.05011C213.79 3.05011 213.59 3.1301 213.43 3.2801C213.37 3.3501 213.32 3.43011 213.28 3.51011C207.74 8.84011 203.39 15.1801 200.42 22.1101C197.4 29.1501 195.79 36.8001 195.79 44.6201C195.79 46.0201 195.84 47.4101 195.94 48.7901C192.62 44.3701 188.67 40.4901 184.26 37.2601C179.08 33.4701 173.26 30.5801 167.01 28.7401C166.97 28.7301 166.94 28.7201 166.9 28.7101C166.9 28.7101 166.86 28.7101 166.85 28.7101H166.84H166.82C166.82 28.7101 166.78 28.7101 166.77 28.7101C166.77 28.7101 166.68 28.7101 166.64 28.7301C166.63 28.7301 166.61 28.7301 166.6 28.7301H166.57V28.7401C166.47 28.7701 166.38 28.8201 166.3 28.8901V28.9001V28.9101H166.29V28.9201V28.9301C166.24 28.9801 166.2 29.0401 166.16 29.1001L166.14 29.1301C166.14 29.1301 166.13 29.1701 166.12 29.1801V29.2001C166.11 29.2401 166.09 29.2901 166.09 29.3301V29.3601C165.29 36.3601 165.95 43.3601 167.95 49.9601C168.53 51.8901 169.23 53.7801 170.04 55.6201C167.22 54.5501 164.28 53.8901 161.31 53.6601C157.71 53.3801 154.05 53.7101 150.5 54.6801C150.4 54.7001 150.29 54.7501 150.2 54.8201C149.94 55.0301 149.85 55.3701 149.95 55.6701C149.95 55.6801 149.95 55.6901 149.96 55.7001C153.43 64.4901 158.98 72.0701 165.93 77.9601C172.55 83.5601 180.45 87.6201 189.06 89.6901C186.9 91.6801 185.09 94.0801 183.76 96.7801C183.76 96.7801 183.76 96.7901 183.76 96.8001C183.76 96.8201 183.75 96.8301 183.74 96.8501C183.73 96.8801 183.72 96.9101 183.71 96.9401C183.71 96.9501 183.71 96.9601 183.71 96.9801C183.71 97.0201 183.7 97.0601 183.7 97.1001C183.7 97.1001 183.7 97.1201 183.7 97.1301C183.7 97.1701 183.7 97.2101 183.7 97.2401C183.7 97.2601 183.7 97.2701 183.71 97.2901C183.71 97.3201 183.73 97.3501 183.74 97.3801C183.74 97.4001 183.75 97.4101 183.76 97.4301C183.77 97.4601 183.79 97.4901 183.8 97.5101C183.8 97.5201 183.82 97.5401 183.83 97.5501C183.85 97.5801 183.87 97.6001 183.89 97.6301C183.9 97.6401 183.91 97.6501 183.93 97.6601C183.95 97.6801 183.98 97.7001 184 97.7201C184.02 97.7301 184.03 97.7401 184.05 97.7501C184.07 97.7601 184.09 97.7801 184.11 97.7901C184.11 97.7901 184.12 97.7901 184.13 97.7901C184.13 97.7901 184.13 97.7901 184.14 97.7901C184.16 97.7901 184.18 97.8101 184.2 97.8101C190.09 100.09 196.36 99.9301 201.85 97.7601C202.99 97.3101 204.1 96.7701 205.16 96.1601C204.7 99.6201 205.14 103.08 206.37 106.23C207.76 109.79 210.16 112.96 213.38 115.29C213.38 115.3 213.39 115.32 213.4 115.33C213.56 115.57 213.84 115.68 214.1 115.65C214.35 115.65 214.59 115.54 214.75 115.32C214.75 115.32 214.75 115.31 214.76 115.3C217.99 112.97 220.39 109.8 221.78 106.23C223.01 103.08 223.45 99.6201 222.99 96.1601C224.05 96.7801 225.16 97.3101 226.3 97.7601C231.79 99.9201 238.06 100.09 243.95 97.8101C243.97 97.8101 243.99 97.7901 244.01 97.7901C244.01 97.7901 244.01 97.7901 244.02 97.7901C244.02 97.7901 244.03 97.7901 244.04 97.7901C244.06 97.7801 244.08 97.7601 244.1 97.7501C244.12 97.7401 244.13 97.7301 244.15 97.7201C244.18 97.7001 244.2 97.6801 244.22 97.6601C244.23 97.6501 244.24 97.6401 244.26 97.6301C244.28 97.6101 244.3 97.5801 244.32 97.5501C244.32 97.5401 244.34 97.5201 244.35 97.5101C244.37 97.4801 244.38 97.4501 244.39 97.4201C244.39 97.4001 244.4 97.3901 244.41 97.3701C244.42 97.3401 244.43 97.3101 244.44 97.2701C244.44 97.2501 244.44 97.2401 244.45 97.2201C244.45 97.1801 244.45 97.1401 244.45 97.1101C244.45 97.1101 244.45 97.0901 244.45 97.0801C244.45 97.0401 244.45 97.0001 244.44 96.9601C244.44 96.9501 244.44 96.9401 244.44 96.9201C244.44 96.8901 244.42 96.8601 244.41 96.8301C244.41 96.8101 244.4 96.7901 244.39 96.7801C244.39 96.7801 244.39 96.7701 244.39 96.7601C243.06 94.0601 241.25 91.6601 239.09 89.6701C247.69 87.6001 255.59 83.5401 262.22 77.9401C269.17 72.0601 274.72 64.4701 278.19 55.6801C278.19 55.6801 278.19 55.6601 278.19 55.6501L278.11 55.6801ZM266.88 55.1901C269.94 54.9501 273.04 55.1701 276.06 55.8801C268.62 65.0501 259.29 72.2901 248.87 77.2201C241.84 80.5401 234.31 82.8201 226.53 83.9201C229.09 83.1201 231.58 82.1101 233.98 80.9201C240.15 77.8501 245.7 73.5301 250.25 68.1501C252.98 64.9201 255.27 61.4001 257.09 57.6701C260.21 56.2901 263.52 55.4601 266.88 55.2001V55.1901ZM216.68 98.8401C215.97 100.57 215.07 102.21 213.99 103.75C212.91 102.21 212 100.56 211.3 98.8301C210.5 96.8801 209.96 94.8301 209.67 92.7201C211.34 91.1201 212.8 89.2501 213.99 87.1501C215.17 89.2501 216.64 91.1201 218.31 92.7301C218.03 94.8401 217.48 96.9001 216.68 98.8401ZM213.98 30.1801C220.07 38.1301 223.12 47.6501 223.12 57.1601C223.12 66.6701 220.08 76.1801 213.99 84.1301C207.9 76.1801 204.85 66.6601 204.85 57.1501C204.85 47.6401 207.89 38.1301 213.98 30.1801ZM258.66 49.5301C256.72 55.9401 253.49 61.9501 249.08 67.1601C244.67 72.3801 239.29 76.5701 233.29 79.5501C228.86 81.7501 224.11 83.2901 219.17 84.1001C229.45 79.4401 238.42 72.5901 245.53 64.1701C252.64 55.7501 257.9 45.7701 260.78 34.8501C260.81 39.8501 260.09 44.7901 258.65 49.5301H258.66ZM244.65 38.4701C249.35 35.0301 254.61 32.3401 260.24 30.5501C257.73 42.7701 252.2 53.9401 244.39 63.1801C237.07 71.8401 227.75 78.8201 217.03 83.3801C221.49 78.5701 225.05 73.0601 227.6 67.1101C229.69 62.2501 231.1 57.1101 231.77 51.8201C235.3 46.6301 239.67 42.1201 244.66 38.4701H244.65ZM201.78 22.6901C204.62 16.0801 208.74 10.0201 213.99 4.90011C219.24 10.0301 223.36 16.0901 226.2 22.7001C229.14 29.5501 230.7 37.0001 230.7 44.6101C230.7 52.2201 229.14 59.6701 226.2 66.5201C224.52 70.4201 222.4 74.1301 219.86 77.5701C223.05 71.1501 224.65 64.1501 224.65 57.1501C224.65 47.1001 221.36 37.0501 214.78 28.7201C214.74 28.5601 214.66 28.4001 214.52 28.2901C214.35 28.1501 214.14 28.1001 213.94 28.1301C213.78 28.1301 213.61 28.1801 213.47 28.2901C213.33 28.4001 213.25 28.5501 213.21 28.7101C206.63 37.0501 203.34 47.1001 203.34 57.1501C203.34 64.1501 204.94 71.1501 208.13 77.5701C205.59 74.1301 203.47 70.4201 201.79 66.5201C198.85 59.6701 197.29 52.2201 197.29 44.6101C197.29 37.0001 198.85 29.5501 201.79 22.7001L201.78 22.6901ZM183.32 38.4701C188.31 42.1201 192.68 46.6301 196.21 51.8201C196.88 57.1101 198.29 62.2601 200.38 67.1101C202.93 73.0501 206.49 78.5601 210.95 83.3801C200.23 78.8201 190.91 71.8501 183.59 63.1801C175.78 53.9401 170.25 42.7701 167.74 30.5501C173.37 32.3401 178.62 35.0301 183.33 38.4701H183.32ZM167.18 34.8401C170.05 45.7601 175.31 55.7401 182.43 64.1601C189.54 72.5801 198.51 79.4301 208.79 84.0901C203.86 83.2901 199.1 81.7501 194.67 79.5401C188.68 76.5601 183.29 72.3701 178.88 67.1501C174.47 61.9401 171.24 55.9201 169.3 49.5201C167.87 44.7901 167.14 39.8401 167.17 34.8401H167.18ZM161.09 55.1801C164.45 55.4501 167.76 56.2701 170.88 57.6501C172.71 61.3801 175 64.9001 177.72 68.1301C182.26 73.5101 187.82 77.8301 193.99 80.9001C196.39 82.0901 198.88 83.1001 201.44 83.9001C193.66 82.8001 186.13 80.5201 179.1 77.2001C168.68 72.2801 159.36 65.0401 151.91 55.8601C154.93 55.1601 158.03 54.9301 161.09 55.1701V55.1801ZM166.82 76.8001C161.4 72.2201 156.87 66.5701 153.54 60.1101C160.61 67.9201 169.1 74.1701 178.45 78.5901C184.39 81.4001 190.67 83.4601 197.16 84.7301C194.76 85.5901 192.53 86.8201 190.54 88.3601C190.5 88.3901 190.45 88.4301 190.41 88.4601C181.62 86.5301 173.54 82.4801 166.82 76.8001ZM191.47 89.5601C194.12 87.5001 197.24 86.0401 200.6 85.3201C204.38 85.8901 208.22 86.1801 212.09 86.2001C208.54 89.3801 204.47 91.8701 200.1 93.5901C195.52 95.4001 190.6 96.3501 185.6 96.3701C187.1 93.7001 189.1 91.3901 191.47 89.5601ZM201.21 96.3701C197.53 97.8201 193.47 98.3201 189.43 97.7001C193.3 97.3301 197.08 96.4201 200.66 95.0101C204.24 93.6001 207.63 91.6901 210.71 89.3201C210.03 90.1901 209.29 91.0001 208.5 91.7401C208.31 91.8101 208.16 91.9501 208.08 92.1301C206.05 93.9601 203.72 95.3901 201.21 96.3801V96.3701ZM220.28 105.71C219.02 108.93 216.88 111.8 213.99 113.94C211.1 111.8 208.95 108.92 207.69 105.7C206.4 102.39 206.04 98.7101 206.79 95.0801C207.28 94.7401 207.76 94.3701 208.22 93.9901C208.55 95.8501 209.07 97.6601 209.78 99.4101C210.68 101.61 211.87 103.68 213.32 105.57C213.32 105.57 213.32 105.57 213.33 105.58C213.35 105.6 213.37 105.62 213.38 105.64C213.4 105.66 213.42 105.68 213.44 105.69C213.44 105.69 213.44 105.69 213.45 105.7C213.46 105.71 213.48 105.72 213.49 105.73C213.51 105.75 213.54 105.76 213.56 105.77C213.58 105.78 213.6 105.79 213.63 105.8C213.65 105.8 213.68 105.82 213.7 105.83C213.72 105.83 213.75 105.84 213.77 105.85C213.79 105.85 213.82 105.85 213.84 105.86C213.86 105.86 213.89 105.86 213.91 105.86C213.93 105.86 213.96 105.86 213.98 105.86C213.99 105.86 214 105.86 214.02 105.86C214.04 105.86 214.06 105.86 214.08 105.86C214.1 105.86 214.13 105.86 214.15 105.85C214.17 105.85 214.2 105.85 214.22 105.83C214.24 105.83 214.27 105.81 214.29 105.8C214.31 105.8 214.33 105.78 214.36 105.77C214.38 105.76 214.41 105.74 214.43 105.73C214.44 105.73 214.46 105.71 214.47 105.7C214.47 105.7 214.47 105.7 214.48 105.69C214.5 105.67 214.52 105.65 214.54 105.64C214.56 105.62 214.58 105.6 214.59 105.58C214.59 105.58 214.59 105.58 214.6 105.57C216.06 103.68 217.25 101.61 218.14 99.4101C218.85 97.6701 219.37 95.8601 219.7 94.0101C220.17 94.3901 220.64 94.7501 221.14 95.1001C221.89 98.7301 221.53 102.41 220.24 105.72L220.28 105.71ZM226.76 96.3801C224.26 95.3901 221.93 93.9601 219.9 92.1401C219.81 91.9401 219.65 91.7901 219.44 91.7201C218.66 90.9801 217.93 90.1801 217.25 89.3201C220.33 91.6901 223.72 93.6001 227.3 95.0101C230.88 96.4201 234.66 97.3301 238.53 97.7001C234.5 98.3201 230.44 97.8301 226.75 96.3701L226.76 96.3801ZM242.37 96.3801C237.36 96.3601 232.45 95.4001 227.87 93.6001C223.5 91.8801 219.44 89.3901 215.88 86.2101C219.75 86.2001 223.59 85.9001 227.37 85.3301C230.74 86.0501 233.85 87.5101 236.5 89.5701C238.87 91.4101 240.87 93.7101 242.37 96.3801ZM261.15 76.8001C254.43 82.4901 246.35 86.5301 237.56 88.4601C237.52 88.4301 237.47 88.3901 237.43 88.3601C235.44 86.8201 233.21 85.5901 230.81 84.7301C237.3 83.4601 243.59 81.3901 249.52 78.5901C258.87 74.1701 267.35 67.9201 274.43 60.1101C271.1 66.5701 266.56 72.2201 261.15 76.8001Z" fill="#738C6D" stroke="#738C6D" stroke-width="0.5" stroke-miterlimit="10"/>
<path d="M389.29 12.41C389.56 7.21 391.55 3.05 395.47 0C395.11 8.26 397.24 14.25 400.59 21.06C404.38 28.74 405.35 35.97 404.32 42.11C403.22 48.72 399.7 54.12 394.32 57.96C389.45 61.44 384.25 62.73 378.56 62.25C372.96 61.78 366.91 59.58 360.25 56.06C357.3 54.5 354.32 53.39 351.01 52.86C347.69 52.33 344.03 52.38 339.72 53.17C339.19 53.27 338.68 52.91 338.58 52.38C338.48 51.85 338.84 51.34 339.37 51.24C343.92 50.41 347.8 50.36 351.34 50.92C354.88 51.48 358.05 52.67 361.18 54.33C367.62 57.74 373.42 59.86 378.73 60.3C383.95 60.74 388.72 59.55 393.2 56.36C398.15 52.82 401.4 47.86 402.41 41.79C403.37 36.03 401.77 28.81 396.41 22.86C391.04 16.93 386.17 16.98 384.59 17.46C381.64 18.35 379.94 20.27 380.08 22.67C382.19 21.31 385.23 21.8 386.67 24.16C388.84 27.69 387.09 31.79 382.97 32.9C378.65 34.07 374.37 31.8 373.12 25.63C372.27 21.44 374.28 16.6 378.04 13.98C381.19 11.78 385.06 10.69 389.3 12.41H389.29Z" fill="#738C6D"/>
<path fill-rule="evenodd" clip-rule="evenodd" d="M351.77 47.5798C359.48 48.7298 362.58 51.1898 368.11 53.3998C373.36 55.4998 381.13 56.4398 386.41 54.5898C392.88 52.3298 397.55 45.5898 396.47 37.7798C396.21 35.9098 394.9 34.8498 393.43 35.1198C391.78 35.4098 391.05 36.9898 391.18 38.4498C391.5 42.0598 390.75 46.7598 387.72 48.8898C387.61 46.9198 386.41 45.5798 384.91 45.2098C382.18 44.5298 375.64 48.5298 370.26 49.1498C370.18 47.0998 368.81 45.3298 366.72 45.1798C361.81 44.8298 358.29 45.9998 351.95 46.2598C351.06 46.2998 351.08 47.4898 351.76 47.5998L351.77 47.5798Z" fill="#738C6D"/>
<path d="M352.701 64.0698C352.131 63.6598 352.011 62.8698 352.431 62.3098C352.841 61.7398 353.631 61.6198 354.201 62.0298C362.351 67.9398 367.631 75.3798 369.821 83.0498C372.071 90.9198 371.061 99.0198 366.561 105.94C361.891 113.11 351.981 118.16 343.391 115.8C338.951 114.58 334.781 111.32 332.991 106.9C331.851 104.1 331.691 100.68 333.591 97.6598C335.811 94.1298 339.821 92.2398 343.981 93.3398C345.161 93.6498 346.301 94.1798 347.341 94.9198C349.761 96.6498 351.541 99.5598 351.961 102.89C352.151 104.45 351.221 106.03 349.551 106.52C348.031 106.96 346.721 105.85 346.161 104.54C345.131 102.11 343.671 99.3698 341.151 99.3298C338.171 99.2898 336.451 101.87 336.961 104.98C337.461 108.04 340.131 111.65 344.291 112.98C351.811 115.39 360.321 110.88 364.441 104.56C368.531 98.2798 369.441 90.9098 367.391 83.7398C365.351 76.5998 360.391 69.6298 352.701 64.0698Z" fill="#738C6D"/>
<path d="M268.411 103.44C267.751 103.88 266.841 103.71 266.401 103.04C265.961 102.38 266.131 101.48 266.801 101.04C269.331 99.3401 271.571 97.1301 273.561 94.6701C275.591 92.1801 277.351 89.4301 278.881 86.6701C281.321 82.3301 284.431 78.2601 288.001 74.7201C291.521 71.2401 295.521 68.2501 299.781 65.9901C305.051 63.2001 310.851 61.4401 316.801 60.6801C322.901 59.8901 329.161 60.1601 335.141 61.4301C342.151 62.9201 349.201 66.3501 354.751 71.1701C359.871 75.6001 363.741 81.2301 365.201 87.6201C365.381 88.4001 364.891 89.1701 364.111 89.3501C363.331 89.5301 362.621 89.1301 362.161 88.4701C357.271 81.4201 353.611 75.5301 346.361 70.2901C347.631 72.9401 348.231 76.6101 346.211 79.0001C345.161 80.2601 342.081 81.7801 342.531 84.3501C342.981 86.9101 346.261 88.3901 345.621 89.4501C345.001 90.4701 340.771 88.2601 337.911 83.1901C336.461 80.6101 337.411 75.5401 333.781 72.4901C331.731 76.7301 333.601 79.8801 332.861 80.9201C331.611 82.6701 327.891 79.1101 323.621 73.2501C319.951 68.2001 314.321 65.4701 304.961 67.9701C312.601 69.1601 316.721 75.4001 315.271 76.7601C314.241 77.7101 308.371 75.1001 300.951 76.5201C293.471 77.9501 284.821 82.0701 281.401 88.0801C279.761 90.9501 277.921 93.8601 275.801 96.4801C273.651 99.1401 271.201 101.54 268.411 103.42V103.44Z" fill="#738C6D"/>
<path d="M233.97 115.2C233.17 115.17 232.54 114.51 232.56 113.71C232.59 112.91 233.25 112.29 234.05 112.31C239.13 112.46 245.37 109.44 251.55 104.73C258.62 99.3401 265.53 91.7701 270.53 84.2001C276 75.9001 282.61 68.3201 290.74 62.4301C298.89 56.5001 308.58 52.2701 320.19 50.6801C329.17 49.4501 338.31 49.0301 347.02 50.8101C355.82 52.6201 364.15 56.6701 371.4 64.4001C376.65 70.0101 379.95 76.7201 381.32 83.4701C382.77 90.5701 382.06 97.7401 379.34 103.73C378.26 106.08 375.92 107.9 374.1 107.45C372.28 107 370.7 104.94 371.13 102.36C372.99 91.1301 375.22 78.8301 366.46 67.6601C357.04 55.6601 336.38 50.6801 320.57 53.5401C309.56 55.5401 300.23 59.1001 292.44 64.7601C284.62 70.4401 278.24 77.7501 272.95 85.7901C267.78 93.6201 260.64 101.44 253.31 107.02C246.63 112.11 239.75 115.37 233.97 115.2Z" fill="#738C6D"/>
<path fill-rule="evenodd" clip-rule="evenodd" d="M313.64 91.5701C312.61 94.4901 308.88 96.73 305.29 97.77C300.43 99.18 294.37 96.32 289.71 98.39C286.38 99.87 285.66 104.4 280.89 107.11C275.94 109.92 267.86 109.6 262.82 109.38C261.28 109.31 260.8 108.68 260.78 108.24C260.75 107.74 261.29 107.21 262.76 107.03C266.36 106.6 270.72 107.16 277.09 103.24C283.22 99.4701 286.9 91.1001 295.02 88.7001C301.04 86.9201 306.59 93.4101 313.65 91.5701H313.64Z" fill="#738C6D"/>
<path d="M33.1902 12.41C32.9202 7.21 30.9302 3.05 27.0102 0C27.3702 8.26 25.2402 14.25 21.8902 21.06C18.1002 28.74 17.1302 35.97 18.1602 42.11C19.2602 48.72 22.7802 54.12 28.1602 57.96C33.0302 61.44 38.2302 62.73 43.9202 62.25C49.5202 61.78 55.5702 59.58 62.2302 56.06C65.1702 54.5 68.1602 53.39 71.4702 52.86C74.7902 52.33 78.4502 52.38 82.7602 53.17C83.2902 53.27 83.8002 52.91 83.9002 52.38C84.0002 51.85 83.6402 51.34 83.1102 51.24C78.5602 50.41 74.6802 50.36 71.1402 50.92C67.6002 51.49 64.4302 52.67 61.3002 54.33C54.8602 57.74 49.0602 59.86 43.7502 60.3C38.5302 60.74 33.7602 59.55 29.2802 56.36C24.3302 52.82 21.0802 47.86 20.0702 41.79C19.1102 36.03 20.7102 28.81 26.0702 22.86C31.4402 16.93 36.3102 16.98 37.8902 17.46C40.8402 18.35 42.5402 20.27 42.4002 22.67C40.2902 21.31 37.2502 21.8 35.8102 24.16C33.6402 27.69 35.3902 31.79 39.5102 32.9C43.8302 34.07 48.1102 31.8 49.3602 25.63C50.2102 21.44 48.2002 16.6 44.4402 13.98C41.2902 11.78 37.4202 10.69 33.1802 12.41H33.1902Z" fill="#738C6D"/>
<path fill-rule="evenodd" clip-rule="evenodd" d="M70.7101 47.5798C63.0001 48.7298 59.9001 51.1898 54.3701 53.3998C49.1201 55.4998 41.3501 56.4398 36.0701 54.5898C29.6001 52.3298 24.9301 45.5898 26.0101 37.7798C26.2701 35.9098 27.5801 34.8498 29.0501 35.1198C30.7001 35.4098 31.4301 36.9898 31.3001 38.4498C30.9801 42.0598 31.7301 46.7598 34.7601 48.8898C34.8801 46.9198 36.0701 45.5798 37.5701 45.2098C40.3001 44.5298 46.8401 48.5298 52.2201 49.1498C52.3001 47.0998 53.6701 45.3298 55.7601 45.1798C60.6701 44.8298 64.1901 45.9998 70.5301 46.2598C71.4201 46.2998 71.4001 47.4898 70.7201 47.5998L70.7101 47.5798Z" fill="#738C6D"/>
<path d="M74.8906 64.0698C75.4606 63.6598 75.5806 62.8698 75.1606 62.3098C74.7506 61.7398 73.9606 61.6198 73.3906 62.0298C65.2406 67.9398 59.9606 75.3798 57.7706 83.0498C55.5206 90.9198 56.5306 99.0198 61.0306 105.94C65.7006 113.11 75.6106 118.16 84.2006 115.8C88.6406 114.58 92.8106 111.32 94.6006 106.9C95.7406 104.1 95.9006 100.68 94.0006 97.6598C91.7806 94.1298 87.7706 92.2398 83.6106 93.3398C82.4306 93.6498 81.2906 94.1798 80.2506 94.9198C77.8306 96.6498 76.0506 99.5598 75.6306 102.89C75.4406 104.45 76.3706 106.03 78.0406 106.52C79.5606 106.96 80.8706 105.85 81.4306 104.54C82.4606 102.11 83.9206 99.3698 86.4406 99.3298C89.4206 99.2898 91.1406 101.87 90.6306 104.98C90.1306 108.04 87.4606 111.65 83.3006 112.98C75.7806 115.39 67.2706 110.88 63.1506 104.56C59.0606 98.2798 58.1506 90.9098 60.2006 83.7398C62.2406 76.5998 67.2006 69.6298 74.8906 64.0698Z" fill="#738C6D"/>
<path d="M159.191 103.44C159.851 103.88 160.761 103.71 161.201 103.04C161.641 102.38 161.471 101.48 160.801 101.04C158.271 99.3401 156.031 97.1301 154.041 94.6701C152.011 92.1801 150.251 89.4301 148.721 86.6701C146.281 82.3301 143.171 78.2601 139.601 74.7201C136.081 71.2401 132.081 68.2501 127.821 65.9901C122.551 63.2001 116.751 61.4401 110.801 60.6801C104.701 59.8901 98.4405 60.1601 92.4605 61.4301C85.4505 62.9201 78.4005 66.3501 72.8505 71.1701C67.7305 75.6001 63.8605 81.2301 62.4005 87.6201C62.2205 88.4001 62.7106 89.1701 63.4906 89.3501C64.2706 89.5301 64.9805 89.1301 65.4405 88.4701C70.3305 81.4201 73.9906 75.5301 81.2406 70.2901C79.9706 72.9401 79.3705 76.6101 81.3905 79.0001C82.4405 80.2601 85.5205 81.7801 85.0705 84.3501C84.6205 86.9101 81.3405 88.3901 81.9805 89.4501C82.6005 90.4701 86.8305 88.2601 89.6905 83.1901C91.1405 80.6101 90.1905 75.5401 93.8205 72.4901C95.8705 76.7301 94.0006 79.8801 94.7406 80.9201C95.9906 82.6701 99.7105 79.1101 103.981 73.2501C107.651 68.2001 113.281 65.4701 122.641 67.9701C115.001 69.1601 110.881 75.4001 112.331 76.7601C113.361 77.7101 119.231 75.1001 126.651 76.5201C134.131 77.9501 142.781 82.0701 146.201 88.0801C147.851 90.9501 149.681 93.8601 151.801 96.4801C153.951 99.1401 156.401 101.54 159.191 103.42V103.44Z" fill="#738C6D"/>
<path d="M193.63 115.2C194.43 115.17 195.06 114.51 195.04 113.71C195.01 112.91 194.35 112.29 193.55 112.31C188.47 112.46 182.23 109.44 176.05 104.73C168.98 99.3401 162.07 91.7701 157.07 84.2001C151.6 75.9001 144.99 68.3201 136.86 62.4301C128.71 56.5001 119.02 52.2701 107.41 50.6801C98.4298 49.4501 89.2898 49.0301 80.5798 50.8101C71.7798 52.6201 63.4498 56.6701 56.1998 64.4001C50.9498 70.0101 47.6498 76.7201 46.2798 83.4701C44.8298 90.5701 45.5398 97.7401 48.2598 103.73C49.3398 106.08 51.6798 107.9 53.4998 107.45C55.3198 107 56.8998 104.94 56.4698 102.36C54.6098 91.1301 52.3698 78.8301 61.1398 67.6601C70.5598 55.6601 91.2198 50.6801 107.03 53.5401C118.04 55.5401 127.37 59.1001 135.16 64.7601C142.98 70.4401 149.36 77.7501 154.65 85.7901C159.81 93.6201 166.96 101.44 174.29 107.02C180.97 112.11 187.85 115.37 193.63 115.2Z" fill="#738C6D"/>
<path fill-rule="evenodd" clip-rule="evenodd" d="M113.95 91.5701C114.98 94.4901 118.71 96.73 122.3 97.77C127.16 99.18 133.22 96.32 137.88 98.39C141.21 99.87 141.93 104.4 146.7 107.11C151.65 109.92 159.73 109.6 164.77 109.38C166.31 109.31 166.79 108.68 166.81 108.24C166.84 107.74 166.3 107.21 164.83 107.03C161.23 106.6 156.87 107.16 150.5 103.24C144.37 99.4701 140.69 91.1001 132.57 88.7001C126.55 86.9201 121 93.4101 113.94 91.5701H113.95Z" fill="#738C6D"/>
</svg>
