<svg width="164" height="31" viewBox="0 0 164 31" fill="none" xmlns="http://www.w3.org/2000/svg">
<path fill-rule="evenodd" clip-rule="evenodd" d="M81.7903 0C78.2203 0 75.3203 6.83999 75.3203 15.27C75.3203 23.7 78.2203 30.54 81.7903 30.54C85.3603 30.54 88.2603 23.7 88.2603 15.27C88.2603 6.83999 85.3603 0 81.7903 0Z" fill="#738C6D"/>
<path fill-rule="evenodd" clip-rule="evenodd" d="M68.7503 10.7798C68.6803 14.1498 69.6003 19.4698 67.5903 21.5198C66.5903 20.8598 65.7703 19.9498 64.4803 20.0998C64.7503 22.6598 64.9903 28.4298 61.5003 28.6398C61.7503 27.0398 61.3003 25.3598 60.6603 25.2098C60.0103 25.2898 57.0403 30.5498 51.2803 28.0598C58.5103 24.8698 61.5603 14.3598 68.7503 10.7798Z" fill="#738C6D"/>
<path fill-rule="evenodd" clip-rule="evenodd" d="M0 11.5798C29.8 5.1698 32.71 21.2398 44.65 21.7398C54.73 22.1598 55.05 7.5298 69.89 7.0498C58.1 10.4098 56.15 24.6898 45.04 25.2298C33.51 25.7898 28.87 8.5198 0 11.5798Z" fill="#738C6D"/>
<path fill-rule="evenodd" clip-rule="evenodd" d="M63.2202 5.43994C53.6502 10.0399 51.4802 15.9199 47.5002 18.1199C41.3202 21.5399 35.7402 16.6799 36.2402 11.6199C36.6802 7.14993 40.7602 6.11995 43.6502 6.75995C45.1102 7.07995 46.1302 8.23993 45.8502 9.86993C45.6102 11.2799 44.1202 12.2999 42.7802 12.0899C41.0902 11.8299 39.9902 9.74995 41.6802 8.28995C39.7302 8.24995 38.3102 9.41995 38.2902 11.11C38.2502 13.63 40.5702 16.7899 44.9202 16.0499C50.6702 15.0799 50.2402 7.02994 63.2302 5.43994H63.2202Z" fill="#738C6D"/>
<path fill-rule="evenodd" clip-rule="evenodd" d="M94.8301 10.7798C94.9001 14.1498 93.9801 19.4698 95.9901 21.5198C96.9901 20.8598 97.8101 19.9498 99.1001 20.0998C98.8301 22.6598 98.5901 28.4298 102.08 28.6398C101.83 27.0398 102.28 25.3598 102.92 25.2098C103.57 25.2898 106.54 30.5498 112.3 28.0598C105.07 24.8698 102.02 14.3598 94.8301 10.7798Z" fill="#738C6D"/>
<path fill-rule="evenodd" clip-rule="evenodd" d="M163.58 11.5798C133.78 5.1698 130.87 21.2398 118.93 21.7398C108.85 22.1598 108.53 7.5298 93.6904 7.0498C105.48 10.4098 107.43 24.6898 118.54 25.2298C130.07 25.7898 134.71 8.5198 163.58 11.5798Z" fill="#738C6D"/>
<path fill-rule="evenodd" clip-rule="evenodd" d="M100.36 5.43994C109.93 10.0399 112.1 15.9199 116.08 18.1199C122.26 21.5399 127.84 16.6799 127.34 11.6199C126.9 7.14993 122.82 6.11995 119.93 6.75995C118.47 7.07995 117.45 8.23993 117.73 9.86993C117.97 11.2799 119.46 12.2999 120.8 12.0899C122.49 11.8299 123.59 9.74995 121.9 8.28995C123.85 8.24995 125.27 9.41995 125.29 11.11C125.33 13.63 123.01 16.7899 118.66 16.0499C112.91 15.0799 113.34 7.02994 100.35 5.43994H100.36Z" fill="#738C6D"/>
</svg>
